<svg xmlns="http://www.w3.org/2000/svg" version="1.1" xmlns:xlink="http://www.w3.org/1999/xlink" xmlns:svgjs="http://svgjs.dev/svgjs" width="1500" height="1500" viewBox="0 0 1500 1500"><rect width="1500" height="1500" fill="#ffffff"></rect><g transform="matrix(0.6666666666666666,0,0,0.6666666666666666,249.3939393939396,629.8915763286733)"><svg viewBox="0 0 396 95" data-background-color="#c4997c" preserveAspectRatio="xMidYMid meet" height="359" width="1500" xmlns="http://www.w3.org/2000/svg" xmlns:xlink="http://www.w3.org/1999/xlink"><g id="tight-bounds" transform="matrix(1,0,0,1,0.23999999999992383,0.17534922886926552)"><svg viewBox="0 0 395.5199999999999 94.64930154226145" height="94.64930154226145" width="395.5199999999999"><g><svg viewBox="0 0 589.5366881998314 141.0781648757383" height="94.64930154226145" width="395.5199999999999"><g><rect width="8.50513306149389" height="141.0781648757383" x="163.24680890406032" y="0" fill="#000000" opacity="1" stroke-width="0" stroke="transparent" fill-opacity="1" class="rect-qz-0" data-fill-palette-color="primary" rx="1%" id="qz-0" data-palette-color="#838f3b"></rect></g><g transform="matrix(1,0,0,1,194.0166881998314,0.3509407086461067)"><svg viewBox="0 0 395.52 140.3762834584461" height="140.3762834584461" width="395.52"><g id="textblocktransform"><svg viewBox="0 0 395.52 140.3762834584461" height="140.3762834584461" width="395.52" id="textblock"><g><svg viewBox="0 0 395.52 94.31177347242921" height="94.31177347242921" width="395.52"><g transform="matrix(1,0,0,1,0,0)"><svg width="395.52" viewBox="1.5 -30.65 167.74 40" height="94.31177347242921" data-palette-color="#838f3b"><path d="M14.9-27.25L14.9-27.25 14.7-27.25Q13.95-25.15 12.93-22.25 11.9-19.35 10.83-16.28 9.75-13.2 8.8-10.55L8.8-10.55 8.55-9.8Q8.25-8.9 7.8-7.55 7.35-6.2 6.85-4.73 6.35-3.25 5.9-1.98 5.45-0.7 5.2 0.1L5.2 0.1Q4.85 0.25 4.48 0.33 4.1 0.4 3.55 0.4L3.55 0.4Q2.75 0.4 2.13-0.03 1.5-0.45 1.5-1.4L1.5-1.4Q1.5-1.85 1.65-2.33 1.8-2.8 2-3.35L2-3.35Q2.6-5.05 3.48-7.5 4.35-9.95 5.4-12.85 6.45-15.75 7.6-18.8 8.75-21.85 9.85-24.75 10.95-27.65 11.9-30.05L11.9-30.05Q12.3-30.25 13.1-30.45 13.9-30.65 14.75-30.65L14.75-30.65Q15.75-30.65 16.68-30.35 17.6-30.05 17.85-29.35L17.85-29.35Q19.05-26.45 20.43-22.78 21.8-19.1 23.2-15.13 24.6-11.15 25.88-7.4 27.15-3.65 28.15-0.6L28.15-0.6Q27.8-0.15 27.23 0.13 26.65 0.4 25.95 0.4L25.95 0.4Q25 0.4 24.5-0.03 24-0.45 23.65-1.45L23.65-1.45 20.9-9.6 20.5-11Q19.5-14.05 18.43-17.15 17.35-20.25 16.43-22.9 15.5-25.55 14.9-27.25ZM22.65-8.1L6.6-8.1 7.9-11.45 21.85-11.45 22.65-8.1ZM43.2 0.65L43.2 0.65Q41.05 0.65 39.17 0.03 37.3-0.6 36.45-1.35L36.45-1.35 36.45-5.05Q37.45-4.1 38.97-3.38 40.5-2.65 42.65-2.65L42.65-2.65Q46.15-2.65 48.27-4.78 50.4-6.9 50.4-11.6L50.4-11.6Q50.4-14.9 49.32-16.82 48.25-18.75 46.47-19.6 44.7-20.45 42.65-20.45L42.65-20.45Q40.85-20.45 39.6-20 38.35-19.55 37.35-19L37.35-19 37.35-2.4 33.35-2.4 33.35-18.9Q33.35-19.9 33.7-20.5 34.05-21.1 35.15-21.75L35.15-21.75Q36.5-22.5 38.37-23.13 40.25-23.75 42.65-23.75L42.65-23.75Q45.95-23.75 48.62-22.48 51.3-21.2 52.87-18.53 54.45-15.85 54.45-11.6L54.45-11.6Q54.45-7.5 53.02-4.78 51.6-2.05 49.05-0.7 46.5 0.65 43.2 0.65ZM35.5 9.35L35.5 9.35Q34.45 9.35 33.9 8.9 33.35 8.45 33.35 7.5L33.35 7.5 33.35-3.85 37.35-3.75 37.35 9Q37.1 9.1 36.6 9.22 36.1 9.35 35.5 9.35ZM70.5 0.65L70.5 0.65Q68.34 0.65 66.47 0.03 64.59-0.6 63.75-1.35L63.75-1.35 63.75-5.05Q64.75-4.1 66.27-3.38 67.8-2.65 69.95-2.65L69.95-2.65Q73.45-2.65 75.57-4.78 77.7-6.9 77.7-11.6L77.7-11.6Q77.7-14.9 76.62-16.82 75.55-18.75 73.77-19.6 72-20.45 69.95-20.45L69.95-20.45Q68.15-20.45 66.9-20 65.65-19.55 64.65-19L64.65-19 64.65-2.4 60.65-2.4 60.65-18.9Q60.65-19.9 61-20.5 61.35-21.1 62.45-21.75L62.45-21.75Q63.8-22.5 65.67-23.13 67.55-23.75 69.95-23.75L69.95-23.75Q73.25-23.75 75.92-22.48 78.59-21.2 80.17-18.53 81.75-15.85 81.75-11.6L81.75-11.6Q81.75-7.5 80.32-4.78 78.9-2.05 76.34-0.7 73.8 0.65 70.5 0.65ZM62.8 9.35L62.8 9.35Q61.75 9.35 61.2 8.9 60.65 8.45 60.65 7.5L60.65 7.5 60.65-3.85 64.65-3.75 64.65 9Q64.4 9.1 63.9 9.22 63.4 9.35 62.8 9.35ZM104.24-6.15L104.24-6.15Q104.24-2.95 101.89-1.15 99.54 0.65 95.09 0.65L95.09 0.65Q91.29 0.65 88.89-0.53 86.49-1.7 86.49-3.1L86.49-3.1Q86.49-3.7 86.82-4.28 87.14-4.85 87.79-5.2L87.79-5.2Q89.14-4.25 90.94-3.45 92.74-2.65 95.04-2.65L95.04-2.65Q100.24-2.65 100.24-6.15L100.24-6.15Q100.24-7.6 99.37-8.53 98.49-9.45 96.79-9.85L96.79-9.85 92.64-10.95Q89.59-11.7 88.19-13.28 86.79-14.85 86.79-17.2L86.79-17.2Q86.79-19.85 88.94-21.8 91.09-23.75 95.49-23.75L95.49-23.75Q97.84-23.75 99.59-23.28 101.34-22.8 102.32-22.03 103.29-21.25 103.29-20.35L103.29-20.35Q103.29-19.7 102.97-19.2 102.64-18.7 102.09-18.45L102.09-18.45Q101.49-18.85 100.57-19.33 99.64-19.8 98.39-20.13 97.14-20.45 95.64-20.45L95.64-20.45Q93.44-20.45 92.09-19.6 90.74-18.75 90.74-17.2L90.74-17.2Q90.74-16.1 91.52-15.28 92.29-14.45 93.99-14.05L93.99-14.05 97.44-13.2Q100.84-12.4 102.54-10.68 104.24-8.95 104.24-6.15ZM110.34-6.05L110.34-13.2 114.34-13.2 114.34-6.3Q114.34-4.3 115.49-3.48 116.64-2.65 118.64-2.65L118.64-2.65Q119.49-2.65 120.54-2.95 121.59-3.25 122.29-3.65L122.29-3.65Q122.59-3.35 122.84-2.9 123.09-2.45 123.09-1.85L123.09-1.85Q123.09-0.75 121.79-0.05 120.49 0.65 118.19 0.65L118.19 0.65Q114.69 0.65 112.52-0.9 110.34-2.45 110.34-6.05L110.34-6.05ZM121.49-19.3L112.39-19.3 112.39-22.6 122.54-22.6Q122.69-22.4 122.84-21.95 122.99-21.5 122.99-21L122.99-21Q122.99-20.2 122.59-19.75 122.19-19.3 121.49-19.3L121.49-19.3ZM114.34-28.35L114.34-11.7 110.34-11.7 110.34-29.8Q110.59-29.9 111.12-30.03 111.64-30.15 112.24-30.15L112.24-30.15Q113.29-30.15 113.82-29.73 114.34-29.3 114.34-28.35L114.34-28.35ZM147.14-11.35L130.34-9 130.14-12.15 145.24-14.2Q145.04-16.95 143.34-18.73 141.64-20.5 138.64-20.5L138.64-20.5Q135.54-20.5 133.51-18.28 131.49-16.05 131.49-11.9L131.49-11.9 131.49-10.8Q131.84-6.8 134.11-4.73 136.39-2.65 140.34-2.65L140.34-2.65Q142.44-2.65 144.14-3.35 145.84-4.05 146.84-4.85L146.84-4.85Q147.39-4.5 147.71-4.03 148.04-3.55 148.04-2.95L148.04-2.95Q148.04-2 146.96-1.18 145.89-0.35 144.11 0.15 142.34 0.65 140.14 0.65L140.14 0.65Q136.29 0.65 133.46-0.75 130.64-2.15 129.11-4.93 127.59-7.7 127.59-11.7L127.59-11.7Q127.59-14.55 128.41-16.78 129.24-19 130.71-20.55 132.19-22.1 134.24-22.93 136.29-23.75 138.69-23.75L138.69-23.75Q141.74-23.75 144.06-22.45 146.39-21.15 147.71-18.82 149.04-16.5 149.04-13.5L149.04-13.5Q149.04-12.4 148.54-11.93 148.04-11.45 147.14-11.35L147.14-11.35ZM158.84-18.8L158.84-18.8 158.84-10.9 154.84-10.9 154.84-18.5Q154.84-19.65 155.26-20.33 155.69-21 156.69-21.65L156.69-21.65Q157.99-22.5 160.24-23.13 162.49-23.75 165.24-23.75L165.24-23.75Q169.24-23.75 169.24-21.75L169.24-21.75Q169.24-21.25 169.09-20.83 168.94-20.4 168.69-20.1L168.69-20.1Q168.19-20.2 167.39-20.3 166.59-20.4 165.79-20.4L165.79-20.4Q163.49-20.4 161.74-19.93 159.99-19.45 158.84-18.8ZM154.84-1.55L154.84-13.2 158.84-12.6 158.84-0.1Q158.59 0 158.09 0.13 157.59 0.25 156.99 0.25L156.99 0.25Q155.94 0.25 155.39-0.18 154.84-0.6 154.84-1.55L154.84-1.55Z" opacity="1" transform="matrix(1,0,0,1,0,0)" fill="#000000" class="wordmark-text-0" data-fill-palette-color="primary" id="text-0"></path></svg></g></svg></g><g transform="matrix(1,0,0,1,0,116.5765197067064)"><svg viewBox="0 0 232.209792 23.79976375173969" height="23.79976375173969" width="232.209792"><g transform="matrix(1,0,0,1,0,0)"><svg width="232.209792" viewBox="3.6 -35.5 445.53999999999996 45.670694455521996" height="23.79976375173969" data-palette-color="#838f3b"><path d="M4.1 0Q3.6 0 3.6-0.5L3.6-0.5 3.6-34.5Q3.6-35 4.1-35L4.1-35 11.8-35Q15.65-35 17.95-32.48 20.25-29.95 20.25-25.7L20.25-25.7 20.25-9.3Q20.25-5.05 17.95-2.53 15.65 0 11.8 0L11.8 0 4.1 0ZM7.15-3.3Q7.15-3.1 7.35-3.1L7.35-3.1 11.75-3.15Q13.95-3.15 15.28-4.85 16.6-6.55 16.65-9.45L16.65-9.45 16.65-25.55Q16.65-28.5 15.35-30.2 14.05-31.9 11.75-31.9L11.75-31.9 7.35-31.9Q7.15-31.9 7.15-31.7L7.15-31.7 7.15-3.3ZM34.85-25.55Q36.1-25.55 37-25L37-25Q37.35-24.8 37.25-24.35L37.25-24.35 36.65-21.75Q36.6-21.3 36.05-21.45L36.05-21.45Q35.45-21.75 34.55-21.75L34.55-21.75Q34.15-21.75 33.95-21.7L33.95-21.7Q32.15-21.6 31-19.83 29.85-18.05 29.85-15.5L29.85-15.5 29.85-0.5Q29.85 0 29.35 0L29.35 0 26.8 0Q26.3 0 26.3-0.5L26.3-0.5 26.3-24.8Q26.3-25.3 26.8-25.3L26.8-25.3 29.35-25.3Q29.85-25.3 29.85-24.8L29.85-24.8 29.85-21.8Q29.85-21.65 29.92-21.65 30-21.65 30.1-21.75L30.1-21.75Q31.55-25.55 34.85-25.55L34.85-25.55ZM55.8-11.8Q55.8-11.3 55.3-11.3L55.3-11.3 43.89-11.3Q43.69-11.3 43.69-11.1L43.69-11.1 43.69-7.45Q43.69-5.35 44.87-4.03 46.04-2.7 47.94-2.7L47.94-2.7Q49.54-2.7 50.67-3.68 51.79-4.65 52.14-6.2L52.14-6.2Q52.29-6.65 52.69-6.65L52.69-6.65 55.19-6.55Q55.39-6.55 55.55-6.4 55.69-6.25 55.64-6L55.64-6Q55.24-3.05 53.22-1.33 51.19 0.4 47.94 0.4L47.94 0.4Q44.39 0.4 42.27-1.7 40.14-3.8 40.14-7.25L40.14-7.25 40.14-18.05Q40.14-21.45 42.27-23.58 44.39-25.7 47.94-25.7L47.94-25.7Q51.54-25.7 53.67-23.58 55.8-21.45 55.8-18.05L55.8-18.05 55.8-11.8ZM47.94-22.6Q46.04-22.6 44.87-21.28 43.69-19.95 43.69-17.8L43.69-17.8 43.69-14.45Q43.69-14.25 43.89-14.25L43.89-14.25 52.09-14.25Q52.29-14.25 52.29-14.45L52.29-14.45 52.29-17.8Q52.29-19.95 51.09-21.28 49.89-22.6 47.94-22.6L47.94-22.6ZM68.24-25.7Q71.74-25.7 73.84-23.43 75.94-21.15 75.94-17.35L75.94-17.35 75.94-0.5Q75.94 0 75.44 0L75.44 0 72.89 0Q72.39 0 72.39-0.5L72.39-0.5 72.39-2Q72.39-2.1 72.32-2.13 72.24-2.15 72.14-2.05L72.14-2.05Q70.29 0.4 66.59 0.4L66.59 0.4Q63.84 0.4 61.82-1.18 59.79-2.75 59.79-6.75L59.79-6.75Q59.79-11 62.24-12.98 64.69-14.95 68.69-14.95L68.69-14.95 72.19-14.95Q72.39-14.95 72.39-15.15L72.39-15.15 72.39-17.1Q72.39-19.6 71.24-21.1 70.09-22.6 68.14-22.6L68.14-22.6Q66.64-22.6 65.57-21.6 64.49-20.6 64.29-19.05L64.29-19.05Q64.29-18.55 63.79-18.55L63.79-18.55 60.99-18.6Q60.74-18.6 60.62-18.75 60.49-18.9 60.54-19.1L60.54-19.1Q60.79-22.05 62.94-23.88 65.09-25.7 68.24-25.7L68.24-25.7ZM67.34-2.7Q69.39-2.7 70.89-4.03 72.39-5.35 72.39-7.7L72.39-7.7 72.39-11.9Q72.39-12.1 72.19-12.1L72.19-12.1 68.64-12.1Q66.24-12.1 64.84-10.83 63.44-9.55 63.44-7.05L63.44-7.05Q63.44-4.85 64.52-3.78 65.59-2.7 67.34-2.7L67.34-2.7ZM101.74-25.65Q104.74-25.65 106.39-23.45 108.04-21.25 108.04-17.35L108.04-17.35 108.04-0.5Q108.04 0 107.54 0L107.54 0 105.04 0Q104.54 0 104.54-0.5L104.54-0.5 104.54-17.05Q104.54-19.6 103.47-21.08 102.39-22.55 100.64-22.55L100.64-22.55Q98.74-22.55 97.64-21.1 96.54-19.65 96.54-17.15L96.54-17.15 96.54-0.5Q96.54 0 96.04 0L96.04 0 93.49 0Q92.99 0 92.99-0.5L92.99-0.5 92.99-17.05Q92.99-19.6 91.91-21.08 90.84-22.55 89.14-22.55L89.14-22.55Q87.24-22.55 86.11-21.1 84.99-19.65 84.99-17.15L84.99-17.15 84.99-0.5Q84.99 0 84.49 0L84.49 0 81.99 0Q81.49 0 81.49-0.5L81.49-0.5 81.49-24.8Q81.49-25.3 81.99-25.3L81.99-25.3 84.49-25.3Q84.99-25.3 84.99-24.8L84.99-24.8 84.99-23.25Q84.99-23.15 85.06-23.13 85.14-23.1 85.24-23.2L85.24-23.2Q86.19-24.45 87.49-25.05 88.79-25.65 90.24-25.65L90.24-25.65Q92.14-25.65 93.54-24.73 94.94-23.8 95.69-22.1L95.69-22.1Q95.74-22 95.84-22 95.94-22 95.99-22.15L95.99-22.15Q96.89-23.95 98.44-24.8 99.99-25.65 101.74-25.65L101.74-25.65ZM114.89-0.1Q113.64-0.1 112.86-0.9 112.09-1.7 112.09-2.9L112.09-2.9Q112.09-4.15 112.86-4.93 113.64-5.7 114.89-5.7L114.89-5.7Q116.09-5.7 116.89-4.93 117.69-4.15 117.69-2.9L117.69-2.9Q117.69-1.7 116.89-0.9 116.09-0.1 114.89-0.1L114.89-0.1ZM133.73 0Q133.23 0 133.23-0.5L133.23-0.5 133.23-34.5Q133.23-35 133.73-35L133.73-35 141.43-35Q145.28-35 147.58-32.48 149.88-29.95 149.88-25.7L149.88-25.7 149.88-9.3Q149.88-5.05 147.58-2.53 145.28 0 141.43 0L141.43 0 133.73 0ZM136.78-3.3Q136.78-3.1 136.98-3.1L136.98-3.1 141.38-3.15Q143.58-3.15 144.91-4.85 146.23-6.55 146.28-9.45L146.28-9.45 146.28-25.55Q146.28-28.5 144.98-30.2 143.68-31.9 141.38-31.9L141.38-31.9 136.98-31.9Q136.78-31.9 136.78-31.7L136.78-31.7 136.78-3.3ZM171.03-11.8Q171.03-11.3 170.53-11.3L170.53-11.3 159.13-11.3Q158.93-11.3 158.93-11.1L158.93-11.1 158.93-7.45Q158.93-5.35 160.1-4.03 161.28-2.7 163.18-2.7L163.18-2.7Q164.78-2.7 165.91-3.68 167.03-4.65 167.38-6.2L167.38-6.2Q167.53-6.65 167.93-6.65L167.93-6.65 170.43-6.55Q170.63-6.55 170.78-6.4 170.93-6.25 170.88-6L170.88-6Q170.48-3.05 168.45-1.33 166.43 0.4 163.18 0.4L163.18 0.4Q159.63 0.4 157.5-1.7 155.38-3.8 155.38-7.25L155.38-7.25 155.38-18.05Q155.38-21.45 157.5-23.58 159.63-25.7 163.18-25.7L163.18-25.7Q166.78-25.7 168.91-23.58 171.03-21.45 171.03-18.05L171.03-18.05 171.03-11.8ZM163.18-22.6Q161.28-22.6 160.1-21.28 158.93-19.95 158.93-17.8L158.93-17.8 158.93-14.45Q158.93-14.25 159.13-14.25L159.13-14.25 167.33-14.25Q167.53-14.25 167.53-14.45L167.53-14.45 167.53-17.8Q167.53-19.95 166.33-21.28 165.13-22.6 163.18-22.6L163.18-22.6ZM182.78 0.25Q179.33 0.25 177.25-1.53 175.18-3.3 175.18-6.25L175.18-6.25 175.18-6.6Q175.18-7.1 175.68-7.1L175.68-7.1 178.08-7.1Q178.58-7.1 178.58-6.6L178.58-6.6 178.58-6.3Q178.58-4.7 179.75-3.6 180.93-2.5 182.83-2.5L182.83-2.5Q184.63-2.5 185.73-3.6 186.83-4.7 186.83-6.4L186.83-6.4Q186.83-7.7 186.13-8.58 185.43-9.45 184.5-9.95 183.58-10.45 181.73-11.25L181.73-11.25Q179.78-12.05 178.5-12.83 177.23-13.6 176.3-15.03 175.38-16.45 175.38-18.65L175.38-18.65Q175.38-21.85 177.35-23.7 179.33-25.55 182.68-25.55L182.68-25.55Q186.08-25.55 188.08-23.65 190.08-21.75 190.08-18.6L190.08-18.6 190.08-18.45Q190.08-17.95 189.58-17.95L189.58-17.95 187.28-17.95Q186.78-17.95 186.78-18.45L186.78-18.45 186.78-18.75Q186.78-20.45 185.65-21.55 184.53-22.65 182.73-22.65L182.73-22.65Q180.93-22.65 179.85-21.53 178.78-20.4 178.78-18.75L178.78-18.75Q178.78-17.55 179.43-16.73 180.08-15.9 181.03-15.38 181.98-14.85 183.68-14.1L183.68-14.1Q185.73-13.2 187.05-12.4 188.38-11.6 189.38-10.15 190.38-8.7 190.38-6.55L190.38-6.55Q190.38-3.45 188.33-1.6 186.28 0.25 182.78 0.25L182.78 0.25ZM197.02-29.9Q195.77-29.9 195-30.7 194.22-31.5 194.22-32.7L194.22-32.7Q194.22-33.95 195-34.73 195.77-35.5 197.02-35.5L197.02-35.5Q198.22-35.5 199-34.73 199.77-33.95 199.77-32.7L199.77-32.7Q199.77-31.5 199-30.7 198.22-29.9 197.02-29.9L197.02-29.9ZM195.77 0Q195.27 0 195.27-0.5L195.27-0.5 195.27-24.8Q195.27-25.3 195.77-25.3L195.77-25.3 198.32-25.3Q198.82-25.3 198.82-24.8L198.82-24.8 198.82-0.5Q198.82 0 198.32 0L198.32 0 195.77 0ZM216.77-24.8Q216.77-25.3 217.27-25.3L217.27-25.3 219.82-25.3Q220.32-25.3 220.32-24.8L220.32-24.8 220.32-0.5Q220.32 4.85 217.85 7.63 215.37 10.4 209.57 10.15L209.57 10.15Q209.07 10.1 209.07 9.6L209.07 9.6 209.07 7.45Q209.07 6.95 209.57 6.95L209.57 6.95Q213.57 7.05 215.17 5.13 216.77 3.2 216.77-0.8L216.77-0.8 216.77-2.3Q216.77-2.4 216.7-2.45 216.62-2.5 216.52-2.4L216.52-2.4Q215.67-1.15 214.35-0.5 213.02 0.15 211.52 0.15L211.52 0.15Q208.37 0.15 206.55-1.95 204.72-4.05 204.72-7.5L204.72-7.5 204.72-18.05Q204.72-21.55 206.55-23.63 208.37-25.7 211.52-25.7L211.52-25.7Q213.02-25.7 214.35-25.08 215.67-24.45 216.52-23.2L216.52-23.2Q216.62-23.05 216.7-23.08 216.77-23.1 216.77-23.25L216.77-23.25 216.77-24.8ZM212.57-2.95Q214.42-2.95 215.6-4.28 216.77-5.6 216.77-7.7L216.77-7.7 216.77-17.8Q216.77-19.95 215.6-21.28 214.42-22.6 212.57-22.6L212.57-22.6Q210.67-22.6 209.47-21.28 208.27-19.95 208.27-17.8L208.27-17.8 208.27-7.7Q208.27-5.6 209.47-4.28 210.67-2.95 212.57-2.95L212.57-2.95ZM234.92-25.65Q237.97-25.65 239.65-23.55 241.32-21.45 241.32-17.7L241.32-17.7 241.32-0.5Q241.32 0 240.82 0L240.82 0 238.27 0Q237.77 0 237.77-0.5L237.77-0.5 237.77-17.4Q237.77-19.85 236.69-21.2 235.62-22.55 233.72-22.55L233.72-22.55Q231.72-22.55 230.59-21.1 229.47-19.65 229.47-17.15L229.47-17.15 229.47-0.5Q229.47 0 228.97 0L228.97 0 226.42 0Q225.92 0 225.92-0.5L225.92-0.5 225.92-24.8Q225.92-25.3 226.42-25.3L226.42-25.3 228.97-25.3Q229.47-25.3 229.47-24.8L229.47-24.8 229.47-23.2Q229.47-23.1 229.57-23.05 229.67-23 229.72-23.15L229.72-23.15Q230.62-24.4 232-25.03 233.37-25.65 234.92-25.65L234.92-25.65ZM248.12-0.1Q246.87-0.1 246.09-0.9 245.32-1.7 245.32-2.9L245.32-2.9Q245.32-4.15 246.09-4.93 246.87-5.7 248.12-5.7L248.12-5.7Q249.32-5.7 250.12-4.93 250.92-4.15 250.92-2.9L250.92-2.9Q250.92-1.7 250.12-0.9 249.32-0.1 248.12-0.1L248.12-0.1ZM279.66 0Q279.21 0 279.11-0.45L279.11-0.45 277.86-6.65Q277.86-6.75 277.79-6.8 277.71-6.85 277.61-6.85L277.61-6.85 268.56-6.85Q268.46-6.85 268.39-6.8 268.31-6.75 268.31-6.65L268.31-6.65 267.06-0.45Q267.01 0 266.51 0L266.51 0 263.96 0Q263.71 0 263.59-0.15 263.46-0.3 263.51-0.55L263.51-0.55 271.01-34.55Q271.11-35 271.56-35L271.56-35 274.56-35Q275.06-35 275.11-34.55L275.11-34.55 282.71-0.55 282.71-0.45Q282.71 0 282.26 0L282.26 0 279.66 0ZM268.96-9.95Q268.96-9.75 269.11-9.75L269.11-9.75 277.01-9.75Q277.16-9.75 277.16-9.95L277.16-9.95 273.16-29.6Q273.11-29.75 273.06-29.75 273.01-29.75 272.96-29.6L272.96-29.6 268.96-9.95ZM295.31-25.7Q298.46-25.7 300.36-23.58 302.26-21.45 302.26-18.05L302.26-18.05 302.26-7.25Q302.26-3.75 300.36-1.68 298.46 0.4 295.31 0.4L295.31 0.4Q293.91 0.4 292.66-0.13 291.41-0.65 290.46-1.75L290.46-1.75Q290.36-1.85 290.29-1.8 290.21-1.75 290.21-1.65L290.21-1.65 290.21 9.2Q290.21 9.7 289.71 9.7L289.71 9.7 287.16 9.7Q286.66 9.7 286.66 9.2L286.66 9.2 286.66-24.8Q286.66-25.3 287.16-25.3L287.16-25.3 289.71-25.3Q290.21-25.3 290.21-24.8L290.21-24.8 290.21-23.65Q290.21-23.55 290.31-23.53 290.41-23.5 290.51-23.6L290.51-23.6Q291.41-24.65 292.69-25.18 293.96-25.7 295.31-25.7L295.31-25.7ZM298.76-17.8Q298.76-19.95 297.54-21.28 296.31-22.6 294.41-22.6L294.41-22.6Q292.56-22.6 291.38-21.28 290.21-19.95 290.21-17.8L290.21-17.8 290.21-7.5Q290.21-5.35 291.38-4.03 292.56-2.7 294.41-2.7L294.41-2.7Q296.31-2.7 297.54-4.03 298.76-5.35 298.76-7.5L298.76-7.5 298.76-17.8ZM316.71-25.7Q319.86-25.7 321.76-23.58 323.66-21.45 323.66-18.05L323.66-18.05 323.66-7.25Q323.66-3.75 321.76-1.68 319.86 0.4 316.71 0.4L316.71 0.4Q315.31 0.4 314.06-0.13 312.81-0.65 311.86-1.75L311.86-1.75Q311.76-1.85 311.68-1.8 311.61-1.75 311.61-1.65L311.61-1.65 311.61 9.2Q311.61 9.7 311.11 9.7L311.11 9.7 308.56 9.7Q308.06 9.7 308.06 9.2L308.06 9.2 308.06-24.8Q308.06-25.3 308.56-25.3L308.56-25.3 311.11-25.3Q311.61-25.3 311.61-24.8L311.61-24.8 311.61-23.65Q311.61-23.55 311.71-23.53 311.81-23.5 311.91-23.6L311.91-23.6Q312.81-24.65 314.08-25.18 315.36-25.7 316.71-25.7L316.71-25.7ZM320.16-17.8Q320.16-19.95 318.93-21.28 317.71-22.6 315.81-22.6L315.81-22.6Q313.96-22.6 312.78-21.28 311.61-19.95 311.61-17.8L311.61-17.8 311.61-7.5Q311.61-5.35 312.78-4.03 313.96-2.7 315.81-2.7L315.81-2.7Q317.71-2.7 318.93-4.03 320.16-5.35 320.16-7.5L320.16-7.5 320.16-17.8ZM335.8 0.25Q332.35 0.25 330.28-1.53 328.2-3.3 328.2-6.25L328.2-6.25 328.2-6.6Q328.2-7.1 328.7-7.1L328.7-7.1 331.1-7.1Q331.6-7.1 331.6-6.6L331.6-6.6 331.6-6.3Q331.6-4.7 332.78-3.6 333.95-2.5 335.85-2.5L335.85-2.5Q337.65-2.5 338.75-3.6 339.85-4.7 339.85-6.4L339.85-6.4Q339.85-7.7 339.15-8.58 338.45-9.45 337.53-9.95 336.6-10.45 334.75-11.25L334.75-11.25Q332.8-12.05 331.53-12.83 330.25-13.6 329.33-15.03 328.4-16.45 328.4-18.65L328.4-18.65Q328.4-21.85 330.38-23.7 332.35-25.55 335.7-25.55L335.7-25.55Q339.1-25.55 341.1-23.65 343.1-21.75 343.1-18.6L343.1-18.6 343.1-18.45Q343.1-17.95 342.6-17.95L342.6-17.95 340.3-17.95Q339.8-17.95 339.8-18.45L339.8-18.45 339.8-18.75Q339.8-20.45 338.68-21.55 337.55-22.65 335.75-22.65L335.75-22.65Q333.95-22.65 332.88-21.53 331.8-20.4 331.8-18.75L331.8-18.75Q331.8-17.55 332.45-16.73 333.1-15.9 334.05-15.38 335-14.85 336.7-14.1L336.7-14.1Q338.75-13.2 340.08-12.4 341.4-11.6 342.4-10.15 343.4-8.7 343.4-6.55L343.4-6.55Q343.4-3.45 341.35-1.6 339.3 0.25 335.8 0.25L335.8 0.25ZM356.8-23.15Q356.8-22.65 356.3-22.65L356.3-22.65 352.5-22.65Q352.3-22.65 352.3-22.45L352.3-22.45 352.3-7.15Q352.3-4.85 353.1-3.98 353.9-3.1 355.55-3.15L355.55-3.15 356.05-3.15Q356.55-3.15 356.55-2.65L356.55-2.65 356.55-0.5Q356.55 0 356.05 0L356.05 0 354.8 0Q351.85 0 350.33-1.28 348.8-2.55 348.8-6.1L348.8-6.1 348.8-22.45Q348.8-22.65 348.6-22.65L348.6-22.65 346.65-22.65Q346.15-22.65 346.15-23.15L346.15-23.15 346.15-24.8Q346.15-25.3 346.65-25.3L346.65-25.3 348.6-25.3Q348.8-25.3 348.8-25.5L348.8-25.5 348.8-31.1Q348.8-31.6 349.3-31.6L349.3-31.6 351.8-31.6Q352.3-31.6 352.3-31.1L352.3-31.1 352.3-25.5Q352.3-25.3 352.5-25.3L352.5-25.3 356.3-25.3Q356.8-25.3 356.8-24.8L356.8-24.8 356.8-23.15ZM376.35-11.8Q376.35-11.3 375.85-11.3L375.85-11.3 364.45-11.3Q364.25-11.3 364.25-11.1L364.25-11.1 364.25-7.45Q364.25-5.35 365.43-4.03 366.6-2.7 368.5-2.7L368.5-2.7Q370.1-2.7 371.22-3.68 372.35-4.65 372.7-6.2L372.7-6.2Q372.85-6.65 373.25-6.65L373.25-6.65 375.75-6.55Q375.95-6.55 376.1-6.4 376.25-6.25 376.2-6L376.2-6Q375.8-3.05 373.77-1.33 371.75 0.4 368.5 0.4L368.5 0.4Q364.95 0.4 362.82-1.7 360.7-3.8 360.7-7.25L360.7-7.25 360.7-18.05Q360.7-21.45 362.82-23.58 364.95-25.7 368.5-25.7L368.5-25.7Q372.1-25.7 374.22-23.58 376.35-21.45 376.35-18.05L376.35-18.05 376.35-11.8ZM368.5-22.6Q366.6-22.6 365.43-21.28 364.25-19.95 364.25-17.8L364.25-17.8 364.25-14.45Q364.25-14.25 364.45-14.25L364.45-14.25 372.65-14.25Q372.85-14.25 372.85-14.45L372.85-14.45 372.85-17.8Q372.85-19.95 371.65-21.28 370.45-22.6 368.5-22.6L368.5-22.6ZM390.15-25.55Q391.4-25.55 392.3-25L392.3-25Q392.65-24.8 392.55-24.35L392.55-24.35 391.95-21.75Q391.9-21.3 391.35-21.45L391.35-21.45Q390.75-21.75 389.85-21.75L389.85-21.75Q389.45-21.75 389.25-21.7L389.25-21.7Q387.45-21.6 386.3-19.83 385.15-18.05 385.15-15.5L385.15-15.5 385.15-0.5Q385.15 0 384.65 0L384.65 0 382.1 0Q381.6 0 381.6-0.5L381.6-0.5 381.6-24.8Q381.6-25.3 382.1-25.3L382.1-25.3 384.65-25.3Q385.15-25.3 385.15-24.8L385.15-24.8 385.15-21.8Q385.15-21.65 385.22-21.65 385.3-21.65 385.4-21.75L385.4-21.75Q386.85-25.55 390.15-25.55L390.15-25.55ZM398.35-29.9Q397.1-29.9 396.32-30.7 395.55-31.5 395.55-32.7L395.55-32.7Q395.55-33.95 396.32-34.73 397.1-35.5 398.35-35.5L398.35-35.5Q399.55-35.5 400.32-34.73 401.1-33.95 401.1-32.7L401.1-32.7Q401.1-31.5 400.32-30.7 399.55-29.9 398.35-29.9L398.35-29.9ZM397.1 0Q396.6 0 396.6-0.5L396.6-0.5 396.6-24.8Q396.6-25.3 397.1-25.3L397.1-25.3 399.65-25.3Q400.15-25.3 400.15-24.8L400.15-24.8 400.15-0.5Q400.15 0 399.65 0L399.65 0 397.1 0ZM405.69 0Q405.19 0 405.19-0.5L405.19-0.5 405.19-2.9Q405.19-3.25 405.34-3.55L405.34-3.55 415.59-21.8Q415.64-21.9 415.62-21.98 415.59-22.05 415.49-22.05L415.49-22.05 405.89-22.05Q405.39-22.05 405.39-22.55L405.39-22.55 405.39-24.8Q405.39-25.3 405.89-25.3L405.89-25.3 419.39-25.3Q419.89-25.3 419.89-24.8L419.89-24.8 419.89-22.4Q419.89-22.05 419.74-21.75L419.74-21.75 409.39-3.5Q409.34-3.4 409.39-3.33 409.44-3.25 409.54-3.25L409.54-3.25 419.49-3.25Q419.99-3.25 419.99-2.75L419.99-2.75 419.99-0.5Q419.99 0 419.49 0L419.49 0 405.69 0ZM439.74-11.8Q439.74-11.3 439.24-11.3L439.24-11.3 427.84-11.3Q427.64-11.3 427.64-11.1L427.64-11.1 427.64-7.45Q427.64-5.35 428.82-4.03 429.99-2.7 431.89-2.7L431.89-2.7Q433.49-2.7 434.62-3.68 435.74-4.65 436.09-6.2L436.09-6.2Q436.24-6.65 436.64-6.65L436.64-6.65 439.14-6.55Q439.34-6.55 439.49-6.4 439.64-6.25 439.59-6L439.59-6Q439.19-3.05 437.17-1.33 435.14 0.4 431.89 0.4L431.89 0.4Q428.34 0.4 426.22-1.7 424.09-3.8 424.09-7.25L424.09-7.25 424.09-18.05Q424.09-21.45 426.22-23.58 428.34-25.7 431.89-25.7L431.89-25.7Q435.49-25.7 437.62-23.58 439.74-21.45 439.74-18.05L439.74-18.05 439.74-11.8ZM431.89-22.6Q429.99-22.6 428.82-21.28 427.64-19.95 427.64-17.8L427.64-17.8 427.64-14.45Q427.64-14.25 427.84-14.25L427.84-14.25 436.04-14.25Q436.24-14.25 436.24-14.45L436.24-14.45 436.24-17.8Q436.24-19.95 435.04-21.28 433.84-22.6 431.89-22.6L431.89-22.6ZM446.34-0.1Q445.09-0.1 444.31-0.9 443.54-1.7 443.54-2.9L443.54-2.9Q443.54-4.15 444.31-4.93 445.09-5.7 446.34-5.7L446.34-5.7Q447.54-5.7 448.34-4.93 449.14-4.15 449.14-2.9L449.14-2.9Q449.14-1.7 448.34-0.9 447.54-0.1 446.34-0.1L446.34-0.1Z" opacity="1" transform="matrix(1,0,0,1,0,0)" fill="#000000" class="slogan-text-1" data-fill-palette-color="secondary" id="text-1"></path></svg></g></svg></g></svg></g></svg></g><g transform="matrix(1,0,0,1,0,0.3509407086461067)"><svg viewBox="0 0 140.98206266978312 140.3762834584461" height="140.3762834584461" width="140.98206266978312"><g><svg xmlns="http://www.w3.org/2000/svg" xmlns:xlink="http://www.w3.org/1999/xlink" version="1.1" x="0" y="0" viewBox="5.431999999999997 5.624 89.13499999999999 88.75200000000001" enable-background="new 0 0 100 100" xml:space="preserve" height="140.3762834584461" width="140.98206266978312" class="icon-icon-0" data-fill-palette-color="accent" id="icon-0"><g fill="#838f3b" data-fill-palette-color="accent"><path fill-rule="evenodd" clip-rule="evenodd" d="M34.664 35.846l-4.884 2.82v5.7l4.884 2.75 4.879-2.761 0.005-5.69L34.664 35.846 34.664 35.846zM63.86 35.846l-4.884 2.82-0.056 5.708 4.94 2.743 4.885-2.75v-5.7L63.86 35.846 63.86 35.846zM49.161 61.248l-4.884 2.68v5.7l4.884 2.75 4.885-2.75v-5.7L49.161 61.248 49.161 61.248zM12.547 70.07l26.888-15.585-0.001-10.066 8.703-5.059L48.15 7.764 44.294 5.71c-12.149 1.686-22.807 8.186-29.818 17.539l0.053 5.701-5.017 2.764c-2.667 5.604-4.08 11.805-4.08 18.326s0.851 12.335 3.27 17.832L12.547 70.07 12.547 70.07zM54.087 94.376c12.944-1.154 24.283-7.889 31.705-17.767l-0.203-4.412L57.971 56.32l-8.81 4.927-8.677-4.899L13.414 72.006l0.059 4.224c7.077 9.285 18.743 16.453 30.835 18.061l4.853-2.774L54.087 94.376 54.087 94.376zM50.203 39.361l8.717 5.009 0.036 10.147 27.519 15.883 4.243-2.277c2.466-5.494 3.849-11.633 3.849-18.084 0-6.612-1.453-12.895-4.245-18.554l-5.075-2.757 0.103-5.672C78.085 13.423 66.869 6.841 54.086 5.624l-3.865 2.121L50.203 39.361 50.203 39.361z" fill="#000000" data-fill-palette-color="accent"></path><rect x="39.436" y="44.35" fill-rule="evenodd" clip-rule="evenodd" width="0.107" height="0.124" fill="#000000" data-fill-palette-color="accent"></rect><rect x="58.916" y="44.365" fill-rule="evenodd" clip-rule="evenodd" width="0.004" height="0.013" fill="#000000" data-fill-palette-color="accent"></rect><rect x="49.159" y="61.242" fill-rule="evenodd" clip-rule="evenodd" width="0.004" height="0.012" fill="#000000" data-fill-palette-color="accent"></rect></g></svg></g></svg></g></svg></g><defs></defs></svg><rect width="395.5199999999999" height="94.64930154226145" fill="none" stroke="none" visibility="hidden"></rect></g></svg></g></svg>